<?xml version="1.0" encoding="UTF-8"?> <svg xmlns="http://www.w3.org/2000/svg" width="180" height="63" viewBox="0 0 180 63" fill="none">

<path d="M78.9331 35.8323C75.5703 35.8323 72.8891 36.9719 70.7078 39.2054C69.6625 40.2539 69.0263 
41.439 68.481 42.8521C68.0266 44.2652 67.7539 45.7694 67.7539 47.2281C67.7539 50.3278 68.7082 52.926 
70.4351 54.8861C72.3892 57.0285 75.2067 58.1681 78.6604 58.1681C82.0233 58.1681 84.7045 57.0285 86.7494 
54.795C88.7035 52.7437 89.6579 50.0087 89.6579 46.8635C89.6579 43.6726 88.7035 41.0744 86.8403 39.0231C84.8863 
36.8807 82.2959 35.8323 78.9331 35.8323ZM83.023 51.7409C81.9778 52.9716 80.6145 53.6098 78.9331 53.6098C77.0699 
53.6098 75.5702 52.9716 74.4796 51.7409C74.0252 51.1939 73.5253 50.5101 73.2526 49.6896C72.9799 48.8691 72.7982 
48.003 72.7982 47.1825C72.7982 45.3136 73.2526 43.8094 74.2069 42.5786C75.2521 41.1655 76.7063 40.5274 78.5695 
40.5274C80.4327 40.5274 81.9324 41.0744 82.9322 42.3963C83.9774 43.627 84.4318 45.0857 84.4318 47.0914C84.4318 
49.097 83.9774 50.5101 83.023 51.7409Z" fill="#fff"></path>

<path d="M177.546 38.6128C175.683 36.6983 174.183 35.7866 171.093 35.7866C167.639 35.7866 164.867 
36.9262 162.731 39.0686C161.686 40.117 160.959 41.3022 160.414 42.7153C159.868 44.1284 159.596 45.6326 
159.596 47.1825C159.596 50.3733 160.732 52.9715 163.14 55.114C165.322 57.0285 167.957 58.0313 171.093 
58.168H171.502C171.593 58.168 171.729 58.168 171.82 58.168C172.093 58.168 172.411 58.168 172.729 
58.168H173.911C174.819 58.168 175.592 57.6666 176.001 56.9829C176.092 56.8461 176.137 56.755 176.183 
56.6182C176.364 56.2991 176.364 55.7977 176.274 55.3419C176.274 55.2963 176.228 55.2051 176.228 
55.1595C176.228 55.0684 176.183 55.0228 176.183 54.9316C176.092 54.7037 176.001 54.4758 175.819 
54.2935C175.637 54.02 175.456 53.792 174.956 53.5641C174.865 53.5185 174.729 53.473 174.592 53.4274C174.547 
53.4274 174.501 53.3818 174.501 53.3818C174.32 53.3362 174.092 53.2906 173.865 53.2906C173.911 53.2906 173.956 
53.2906 173.865 53.2906C173.32 53.245 173.365 53.2906 171.866 53.245C170.366 53.1995 168.684 52.8804 167.412 
52.0143C166.185 51.2394 165.367 50.191 164.958 48.8235C164.913 48.6867 165.004 48.5955 165.14 48.5955H172.138C174.819 
48.5955 176.592 48.55 177.864 48.2765C179.137 48.003 180 46.9545 180 45.6326C179.955 42.7153 179.318 40.4817 177.546 
38.6128ZM175.092 44.5386H165.185C165.049 44.5386 164.958 44.4019 165.004 44.3107C165.185 43.7637 165.367 43.2623 165.685 
42.7609C166.821 40.9831 168.366 40.0715 170.411 40.0715C173.047 40.0715 174.638 41.4845 175.274 44.3107C175.319 44.4475 
175.228 44.5386 175.092 44.5386Z" fill="#fff"></path>

<path d="M155.006 51.741V44.2653C155.006 42.9434 154.825 41.8494 154.461 40.801C153.234 37.519 150.371 35.9236 145.872 
35.9236C144.191 35.9236 142.509 36.1059 141.01 36.5617C140.555 36.6985 139.737 37.1543 139.737 37.1543C139.01 37.4734 
138.556 38.2027 138.556 39.0233C138.556 40.1173 139.374 40.9833 140.419 41.1201C140.464 41.1201 140.51 41.1201 140.51 
41.1201C140.555 41.1201 140.601 41.1201 140.601 41.1201C140.646 41.1201 140.646 41.1201 140.692 41.1201C140.737 41.1201 
140.782 41.1201 140.873 41.1201C141.101 41.0745 141.282 41.0289 141.509 40.9378C142.055 40.7554 142.736 40.5731 143.373 
40.4819C144.009 40.3908 144.691 40.2996 145.327 40.2996C145.963 40.2996 146.645 40.3908 147.19 40.4819C148.962 40.8466 
149.871 42.1685 150.098 44.3109C149.917 44.3109 149.735 44.3109 149.553 44.2198C149.371 44.2198 149.19 44.2198 149.008 
44.2198H148.19C144.554 44.2198 141.646 44.9491 139.51 46.3622C137.556 47.6841 136.602 49.3707 136.602 51.3308C136.602 
53.5643 137.42 55.2509 139.01 56.3905C139.737 56.9375 140.782 57.4389 141.918 57.7124C143.055 57.9859 144.418 58.1683 
146.008 58.1683C147.599 58.1683 149.371 57.6213 151.325 56.5728C152.052 57.8036 153.643 57.9859 154.688 57.0287L154.87 
56.8463C155.052 56.5728 155.052 56.5728 155.052 56.2538V55.5244C155.006 54.2481 155.006 52.9718 155.006 51.741ZM149.826 
49.6898V52.1968C149.826 52.1968 149.826 52.6071 149.78 52.6983C149.508 53.2908 147.372 53.929 145.963 53.929C144.554 
53.929 143.464 53.7467 142.782 53.2908C142.418 53.1085 142.146 52.835 141.964 52.4703C141.782 52.1057 141.691 51.741 
141.691 51.2396C141.691 50.7838 141.782 50.4191 142.055 49.9177C143.191 48.1399 145.599 47.9576 147.463 47.8664C147.917 
47.8664 148.417 47.8664 148.871 48.0488C149.144 48.1399 149.417 48.4134 149.599 48.5958C149.871 48.9148 149.826 49.6898 
149.826 49.6898Z" fill="#fff"></path>

<path d="M58.1651 36.6071C56.9381 36.1513 55.5748 35.8778 53.9842 35.8778C52.3483 35.8778 50.894 36.2425 49.3035 
37.063V29.6785C49.3035 28.2654 48.1674 27.1714 46.8041 27.1714C45.4408 27.1714 44.3047 28.311 44.3047 29.6785V49.7807C44.3047 
52.4701 45.3499 54.567 47.2131 56.1624C48.8945 57.5755 51.0304 58.2136 53.6661 58.2136C56.6654 58.2136 59.1648 57.1652 61.1189 
55.114C63.1639 52.9716 64.2091 50.1454 64.2091 46.6811C64.2091 43.3991 63.2548 40.8008 61.3007 38.7496C60.3009 37.7923 59.2557 
37.063 58.1651 36.6071ZM57.438 51.7864C56.3928 53.0171 55.0294 53.6553 53.348 53.6553C53.0299 53.6553 52.7572 53.6553 52.4846 
53.6097C50.6668 53.3818 49.3035 51.7864 49.3035 49.9631V44.2651C49.3035 42.2139 50.9395 40.5729 52.9845 40.5729C54.8477 40.5729 
56.3473 41.1199 57.3471 42.4418C58.3923 43.6726 58.8467 45.1312 58.8467 47.1369C58.8467 49.0514 58.3923 50.5556 57.438 51.7864Z" 
fill="#fff"></path>

<path d="M105.653 36.0146C104.29 36.0146 103.063 36.4249 101.927 36.8807C100.791 37.3366 99.6544 37.838 98.7001 38.8864L98.5638 
38.2482C98.3366 37.1998 97.4277 36.4249 96.4279 36.4249C95.2009 36.4249 94.2012 37.4733 94.2012 38.7952V55.4787C94.2012 56.983 
95.3373 58.1682 96.746 58.1682C98.1548 58.1682 99.2909 56.9374 99.2909 55.4787V45.2681C99.2909 43.4903 100.154 41.8037 101.609 
40.9832C101.609 40.9832 101.609 40.9832 101.654 40.9832C102.517 40.5274 103.335 40.2539 104.199 40.2539C105.335 40.2539 106.153 40.6186 106.698 
41.3479C107.244 42.0772 107.516 42.9889 107.516 44.1741V55.5243C107.516 57.0286 108.652 58.2137 110.061 58.2137C111.47 58.2137 112.606 56.983 
112.606 55.5243V43.4903C112.606 41.12 112.015 39.2511 110.788 37.9747C109.561 36.6984 107.834 36.0146 105.653 36.0146Z" 
fill="#fff"></path>


<path d="M127.195 45.2226L125.831 44.8123C124.422 44.4021 123.468 43.9918 122.968 43.5816C122.514 43.1713 122.241 42.6699 122.241 42.1229C122.241 41.4391 122.514 40.8921 123.105 40.5275C123.695 40.1172 124.513 39.9349 125.649 39.9349C126.74 39.9349 127.831 40.1172 128.967 40.4819C130.012 40.801 131.057 40.1628 131.375 39.16C131.693 38.1116 131.103 37.0176 130.012 36.6985C129.558 36.5617 129.149 36.4706 128.694 36.3794C127.558 36.1515 126.377 36.0603 125.15 36.0603C123.923 36.0603 122.832 36.1971 121.832 36.5161C120.832 36.8352 119.969 37.2911 119.287 37.8381C118.606 38.3851 118.06 39.0688 117.651 39.8893C117.242 40.6642 117.061 41.5303 117.061 42.4876C117.061 44.083 117.515 45.3593 118.378 46.3166C119.242 47.2738 120.605 48.0943 122.468 48.6869L123.877 49.1427C125.286 49.553 126.286 49.9632 126.831 50.3279C127.422 50.6926 127.694 51.2396 127.694 51.9233C127.694 53.5187 126.467 54.2936 123.968 54.2936C122.923 54.2936 121.923 54.1569 120.969 53.8834C120.651 53.7922 120.378 53.7011 120.06 53.6099C119.015 53.2452 117.924 53.8834 117.606 54.9318L117.56 55.1142C117.288 56.117 117.788 57.211 118.787 57.5301C120.378 58.0315 122.196 58.2594 124.241 58.2594C126.922 58.2594 129.058 57.6668 130.603 56.4361C132.148 55.2053 132.92 53.6099 132.92 51.5131C132.92 49.9176 132.421 48.5957 131.466 47.5929C130.557 46.5901 129.103 45.8151 127.195 45.2226Z" 
fill="#fff"></path>
   
   
<path d="M32.0347 0.0493887C29.0808 -0.224111 26.2178 0.641972 23.9002 2.55647C21.5826 4.47097 20.1738 7.11481 19.9011 
10.0777C19.5376 13.9523 21.219 17.7813 24.3546 20.1061C22.2188 23.2057 20.9009 26.8068 20.5374 30.5447C20.3556 32.4592 
20.401 34.3737 20.7191 36.2426C19.2649 35.2397 17.6744 34.4192 15.993 33.8267C16.0384 33.6443 16.0384 33.5076 16.0384 
33.3252C16.2656 31.1828 15.6294 29.086 14.2661 27.445C12.9028 25.804 10.9941 24.7556 8.85828 24.5276C4.40478 24.1174 
0.451166 27.3538 0.0421713 31.7754C-0.412268 36.197 2.85969 40.1172 7.26775 40.573C10.1762 40.8465 12.9937 39.5702 
14.6297 37.1542C21.5371 39.6613 26.3087 46.043 26.7632 53.3819C24.8545 53.9289 23.4458 55.6155 23.264 57.6212C23.1277 
58.9431 23.5367 60.2194 24.3546 61.2223C25.1726 62.2251 26.3542 62.8633 27.672 63C27.8538 63 27.9902 63 28.1719 63C30.6713
63 32.8072 61.0855 33.0799 58.5328C33.2616 56.5272 32.2164 54.5671 30.3987 53.6554C30.2624 49.5073 28.899 45.496 26.5814 
42.0772C24.5364 38.7497 23.673 34.8751 24.082 30.9093C24.4001 27.5817 25.5816 24.4365 27.5357 21.7471C28.3083 22.0206 29.1263 
22.1573 29.8988 22.2485C36.0337 22.8411 41.4415 18.3283 42.0323 12.2201C42.6231 6.11198 38.1696 0.641972 32.0347 0.0493887Z" 
fill="#fff"></path></svg> 
